<svg fill="#fafbff" width="52" height="52" viewBox="0 0 64 64" xmlns="http://www.w3.org/2000/svg"><path fill-rule="evenodd" clip-rule="evenodd" d="M13.1471 7C9.55152 7 6.89097 10.1346 7.01011 13.534C7.12444 16.8 6.97589 21.0298 5.90684 24.4792C4.83398 27.9384 3.02081 30.1304 0.0585938 30.4117V33.5883C3.02081 33.8702 4.83398 36.0612 5.90672 39.5208C6.97589 42.9702 7.12432 47.2 7.00998 50.466C6.89084 53.8649 9.5514 57 13.1476 57H49.9902C53.5859 57 56.2459 53.8654 56.1268 50.466C56.0124 47.2 56.161 42.9702 57.23 39.5208C58.3029 36.0612 60.1116 33.8694 63.074 33.5883V30.4117C60.1118 30.1298 58.3031 27.9388 57.23 24.4792C56.1608 21.0303 56.0124 16.8 56.1268 13.534C56.2459 10.1351 53.5859 7 49.9902 7H13.1471ZM42.7809 37.7783C42.7809 42.4591 39.2756 45.2979 33.4584 45.2979H23.5558C23.2726 45.2979 23.0009 45.1859 22.8006 44.9863C22.6003 44.7868 22.4878 44.5162 22.4878 44.2341V19.766C22.4878 19.4839 22.6003 19.2133 22.8006 19.0138C23.0009 18.8143 23.2726 18.7022 23.5558 18.7022H33.4019C38.2525 18.7022 41.4359 21.3192 41.4359 25.3372C41.4359 28.1574 39.2944 30.6822 36.5662 31.1245V31.2716C40.2802 31.6773 42.7809 34.2395 42.7809 37.7783ZM32.3786 22.0745H26.7323V30.0183H31.4878C35.1642 30.0183 37.1912 28.5438 37.1912 25.9083C37.1909 23.4383 35.4482 22.0745 32.3786 22.0745ZM26.7323 33.1702V41.9245H32.5864C36.4141 41.9245 38.4415 40.3947 38.4415 37.5197C38.4415 34.6448 36.3572 33.1698 32.3402 33.1698L26.7323 33.1702Z"/></svg>