<svg fill="#fafbff" width="52" height="52" viewBox="0 0 64 64" xmlns="http://www.w3.org/2000/svg"><path d="M62.1992 31.0002C61.5992 15.5002 48.8992 2.8002 33.2992 2.2002C24.8992 1.9002 17.0992 4.9002 10.9992 10.6002C4.99922 16.4002 1.69922 24.1002 1.69922 32.4002C1.69922 46.1002 10.8992 58.1002 24.0992 61.6002C24.4992 61.7002 24.7992 61.7002 25.1992 61.7002C26.0992 61.7002 26.9992 61.4002 27.6992 60.8002C28.6992 60.0002 29.2992 58.8002 29.2992 57.5002V54.3002C29.2992 53.4002 29.3992 49.6002 29.3992 48.9002C29.4992 48.4002 29.5992 48.0002 29.8992 47.7002C30.4992 46.9002 30.5992 45.8002 30.1992 44.9002C29.7992 44.1002 28.9992 43.5002 28.0992 43.5002C27.4992 43.4002 26.7992 43.3002 26.2992 43.1002C25.4992 42.9002 24.7992 42.6002 23.9992 42.2002C23.3992 41.9002 22.8992 41.4002 22.3992 40.8002C22.0992 40.5002 21.6992 39.8002 21.2992 38.5002C20.8992 37.3002 20.7992 36.1002 20.7992 34.8002C20.7992 33.0002 21.2992 31.6002 22.3992 30.4002C22.9992 29.7002 23.1992 28.8002 22.7992 28.0002C22.4992 27.3002 22.3992 26.5002 22.5992 25.5002C23.9992 26.0002 24.3992 26.3002 24.4992 26.4002L24.5992 26.5002C24.9992 26.7002 25.2992 26.9002 25.5992 27.1002L25.8992 27.3002C26.3992 27.6002 27.0992 27.7002 27.6992 27.5002C29.2992 27.1002 30.9992 26.8002 32.5992 26.8002C34.2992 26.8002 35.8992 27.0002 37.4992 27.5002C38.0992 27.7002 38.6992 27.6002 39.2992 27.3002L40.3992 26.6002C41.0992 26.2002 41.8992 25.8002 42.5992 25.5002C42.7992 26.4002 42.6992 27.3002 42.3992 28.1002C42.0992 28.9002 42.2992 29.8002 42.7992 30.4002C43.8992 31.6002 44.3992 33.0002 44.3992 34.8002C44.3992 36.2002 44.1992 37.4002 43.8992 38.4002C43.4992 39.4002 43.1992 40.2002 42.6992 40.8002C42.2992 41.3002 41.6992 41.7002 40.8992 42.2002C40.0992 42.6002 39.3992 42.9002 38.5992 43.1002C38.0992 43.2002 37.3992 43.4002 36.6992 43.5002H36.5992C35.6992 43.7002 34.9992 44.3002 34.5992 45.1002C34.2992 45.9002 34.2992 46.8002 34.8992 47.6002C35.2992 48.1002 35.4992 48.9002 35.4992 49.8002V57.3002C35.4992 58.6002 36.0992 59.9002 37.1992 60.6002C38.2992 61.4002 39.5992 61.6002 40.7992 61.2002C54.1992 57.4002 62.8992 44.8002 62.1992 31.0002ZM40.1992 57.0002V50.0002C40.1992 49.1002 40.0992 48.3002 39.8992 47.6002H39.9992C40.9992 47.3002 42.0992 46.9002 43.1992 46.3002C43.1992 46.3002 43.2992 46.3002 43.2992 46.2002C44.4992 45.5002 45.4992 44.7002 46.1992 43.8002C47.1992 42.7002 47.6992 41.3002 48.1992 40.0002C48.6992 38.5002 48.8992 36.9002 48.8992 34.9002C48.8992 32.5002 48.1992 30.3002 46.8992 28.5002C47.2992 26.6002 47.0992 24.5002 46.1992 22.3002C45.9992 21.7002 45.3992 21.2002 44.7992 21.0002C43.6992 20.6002 42.4992 20.8002 40.8992 21.3002C39.8992 21.7002 38.8992 22.2002 37.8992 22.7002L37.6992 23.0002C34.2992 22.2002 30.6992 22.2002 27.2992 23.0002C27.1992 22.9002 27.0992 22.9002 26.8992 22.8002C26.2992 22.4002 25.4992 22.0002 24.1992 21.5002C22.5992 20.8002 21.2992 20.6002 20.0992 21.0002C19.4992 21.2002 18.8992 21.7002 18.6992 22.4002C17.8992 24.7002 17.6992 26.7002 18.0992 28.6002C16.7992 30.4002 16.0992 32.6002 16.0992 35.0002C16.0992 36.8002 16.2992 38.4002 16.7992 40.0002C17.2992 41.6002 17.8992 42.9002 18.6992 43.8002C19.5992 44.9002 20.5992 45.7002 21.6992 46.3002C22.6992 46.9002 23.7992 47.3002 24.8992 47.6002C24.9992 47.6002 24.9992 47.6002 25.0992 47.6002C24.9992 47.9002 24.9992 48.3002 24.8992 48.6002C24.8992 48.7002 24.8992 48.8002 24.8992 48.8002C24.8992 48.8002 24.8992 50.1002 24.8992 51.5002C22.6992 50.7002 20.8992 49.6002 19.2992 48.0002C18.0992 46.6002 16.6992 45.3002 15.9992 44.9002C14.5992 44.2002 13.6992 45.6002 13.8992 46.4002C14.1992 47.4002 15.5992 48.0002 16.4992 48.8002C17.3992 49.7002 17.5992 50.9002 18.1992 51.9002C19.0992 53.2002 22.1992 54.9002 24.7992 54.9002V57.2002C13.8992 54.1002 6.29922 44.0002 6.29922 32.5002C6.29922 25.4002 9.09922 18.8002 14.1992 13.9002C18.9992 9.2002 25.3992 6.7002 32.0992 6.7002C32.3992 6.7002 32.7992 6.7002 33.0992 6.7002C46.3992 7.2002 57.1992 18.0002 57.6992 31.2002C58.2992 42.8002 51.0992 53.4002 40.1992 57.0002Z"/></svg>