<svg fill="#fafbff" width="52" height="52" viewBox="0 0 64 64" xmlns="http://www.w3.org/2000/svg"><g clip-path="url(#clip0_412_119)"><path d="M57.6506 0H6.94291C3.54476 0 0.789062 2.79875 0.789062 6.25V57.75C0.789062 61.2013 3.54476 64 6.94291 64H57.6506C61.0488 64 63.8044 61.2013 63.8044 57.75V6.25C63.8044 2.79875 61.0488 0 57.6506 0ZM37.3429 35.5H29.4659V58.375H23.189V35.5H15.3121V30.375H37.3429V35.5ZM57.6506 54.2625C57.1582 55.3875 56.309 56.225 55.3121 56.8875C54.3275 57.5 53.2198 57.975 51.8659 58.2625C50.5121 58.55 49.1582 58.6875 47.6813 58.6875C46.2044 58.6875 44.7275 58.5625 43.3736 58.3C42.0198 58.0375 40.8013 57.65 39.8044 57.125V51.1188C39.7269 51.0563 39.6469 50.995 39.5706 50.93L39.8044 50.875V51.1188C40.8506 51.9625 42.0026 52.6125 43.2629 53.055C44.4936 53.53 45.8475 53.7675 47.2013 53.7675C48.0629 53.7675 48.7152 53.6925 49.2936 53.555C49.8967 53.405 50.3767 53.205 50.7706 52.955C51.1644 52.705 51.4574 52.405 51.6445 52.055C51.8316 51.705 51.9275 51.33 51.9275 50.93C51.9275 50.355 51.7676 49.855 51.4599 49.43C51.1768 49.005 50.7583 48.605 50.2291 48.2425C49.7368 47.88 49.1214 47.53 48.383 47.1925C47.6445 46.855 46.8937 46.505 46.0445 46.155C43.9522 45.155 42.303 44.155 41.2445 42.78C40.1737 41.53 39.6445 39.905 39.6445 38.03C39.6445 36.53 39.9276 35.33 40.506 34.28C41.1214 33.155 41.8476 32.33 42.8445 31.655C43.8291 30.9675 44.9368 30.4675 46.2907 30.155C47.6445 29.8425 48.9983 29.68 50.4753 29.68C51.9522 29.68 53.183 29.7675 54.2907 29.9425C55.3983 30.1175 56.4322 30.3925 57.3676 30.755V36.63C56.9368 36.305 56.4322 36.0175 55.8907 35.7675C55.3122 35.5175 54.746 35.3175 54.1676 35.155C53.5891 34.9925 53.0107 34.8712 52.4445 34.7925C51.903 34.7137 51.3614 34.675 50.8445 34.675C50.0937 34.675 49.4537 34.7375 48.8753 34.875C48.2845 35.0125 47.7922 35.2 47.3983 35.45C47.0045 35.7 46.698 35.9875 46.4753 36.3375C46.2524 36.6875 46.1429 37.075 46.1429 37.5C46.1429 37.9625 46.2659 38.375 46.5121 38.75C46.7582 39.1125 47.1029 39.4625 47.5582 39.8C47.9644 40.125 48.5182 40.45 49.1582 40.775C49.8967 41.1 50.5613 41.425 51.3736 41.7625C52.4813 42.2375 53.4659 42.7625 54.3275 43.2625C55.189 43.7625 55.9152 44.35 56.5429 45.0125C57.2075 45.6375 57.6875 46.3875 58.0198 47.2625C58.3521 48.1375 58.5244 49.125 58.5244 50.2625C58.5244 51.8875 58.1429 53.1375 57.6506 54.2625Z"/></g><defs><clipPath id="clip0_412_119"><rect width="64" height="64" fill="white"/></clipPath></defs></svg>